<svg width="632" height="406" viewBox="0 0 632 406" fill="none" xmlns="http://www.w3.org/2000/svg">
<g filter="url(#filter0_b_6094_85039)">
<rect x="247.508" y="133.367" width="136.987" height="140.105" rx="20.7895" fill="#F12711" fill-opacity="0.2"/>
<g filter="url(#filter1_b_6094_85039)">
<rect x="263.508" y="149.367" width="104.987" height="108.105" rx="16.6316" fill="#F12711" fill-opacity="0.4"/>
<g filter="url(#filter2_b_6094_85039)">
<rect x="275.981" y="161.841" width="80.0395" height="83.1579" rx="12.4737" fill="#F12711" fill-opacity="0.6"/>
<g filter="url(#filter3_b_6094_85039)">
<rect x="286.376" y="172.236" width="59.25" height="62.3684" rx="12.4737" fill="#F12711" fill-opacity="0.8"/>
<rect x="286.636" y="172.495" width="58.7303" height="61.8487" rx="12.2138" stroke="#E9ECFF" stroke-opacity="0.1" stroke-width="0.519737"/>
<g clip-path="url(#clip0_6094_85039)">
<path fill-rule="evenodd" clip-rule="evenodd" d="M296.739 200.97C297.11 197.12 298.597 193.437 301.046 190.361C303.897 186.78 307.89 184.225 312.395 183.098C316.9 181.972 321.663 182.337 325.932 184.136C329.599 185.682 332.724 188.212 334.952 191.412L332.343 192.809C330.441 190.167 327.819 188.076 324.755 186.785C321.09 185.239 317 184.926 313.132 185.894C309.263 186.861 305.835 189.055 303.387 192.129C301.341 194.699 300.077 197.761 299.717 200.97H296.739ZM299.5 189.193C296.785 192.603 295.151 196.696 294.775 200.97C294.719 201.601 294.691 202.237 294.691 202.875H296.648H299.61H301.566C301.566 199.407 302.75 196.038 304.932 193.297C307.114 190.557 310.17 188.602 313.618 187.739C317.066 186.877 320.711 187.156 323.978 188.534C326.903 189.766 329.376 191.816 331.092 194.412C331.427 194.917 332.103 195.112 332.644 194.822L336.71 192.645C337.251 192.355 337.45 191.692 337.127 191.179C334.667 187.284 331.033 184.21 326.709 182.387C322.041 180.42 316.834 180.021 311.909 181.253C306.983 182.485 302.617 185.278 299.5 189.193ZM299.5 217.647C296.383 213.732 294.691 208.918 294.691 203.964H301.566C301.566 207.432 302.75 210.802 304.932 213.542C307.114 216.282 310.17 218.237 313.618 219.1C317.066 219.962 320.711 219.683 323.978 218.306C326.903 217.073 329.376 215.023 331.092 212.428C331.427 211.922 332.103 211.727 332.644 212.017L336.71 214.194C337.251 214.484 337.45 215.148 337.127 215.66C334.667 219.555 331.033 222.629 326.709 224.452C322.041 226.42 316.834 226.819 311.909 225.587C306.983 224.355 302.617 221.561 299.5 217.647ZM304.473 202.875C304.473 200.066 305.432 197.336 307.2 195.116C308.967 192.896 311.443 191.312 314.236 190.614C317.029 189.915 319.982 190.141 322.629 191.257C325.061 192.283 327.109 194.006 328.503 196.189C328.706 196.508 328.581 196.923 328.243 197.104L324.913 198.888C324.575 199.069 324.152 198.947 323.937 198.635C323.107 197.433 321.938 196.483 320.564 195.904C318.976 195.235 317.205 195.099 315.529 195.518C313.853 195.937 312.368 196.888 311.307 198.22C310.246 199.552 309.671 201.189 309.671 202.875H304.473ZM306.274 205.598C306.56 207.456 307.331 209.223 308.525 210.722C310.064 212.655 312.22 214.035 314.653 214.644C317.086 215.252 319.658 215.055 321.963 214.083C323.75 213.33 325.299 212.143 326.469 210.649L324.831 209.772C323.874 210.923 322.641 211.839 321.23 212.434C319.301 213.248 317.148 213.413 315.112 212.903C313.075 212.394 311.271 211.239 309.982 209.621C309.04 208.438 308.413 207.056 308.143 205.598H306.274ZM307.2 211.723C305.777 209.937 304.878 207.82 304.581 205.598C304.509 205.058 304.473 204.513 304.473 203.964H306.149H307.994H309.671C309.671 205.65 310.246 207.288 311.307 208.62C312.367 209.951 313.853 210.902 315.529 211.321C317.205 211.74 318.976 211.605 320.564 210.935C321.938 210.356 323.107 209.406 323.937 208.204C324.152 207.893 324.575 207.77 324.913 207.951L328.243 209.735C328.581 209.916 328.706 210.331 328.503 210.65C327.109 212.834 325.061 214.557 322.629 215.582C319.982 216.698 317.029 216.924 314.236 216.226C311.443 215.527 308.967 213.943 307.2 211.723Z" fill="#FFF0E9"/>
</g>
</g>
</g>
</g>
</g>
<g filter="url(#filter4_b_6094_85039)">
<rect x="582.109" y="62.0518" width="49.8947" height="49.8947" rx="12.4737" fill="#24201F"/>
<rect x="582.369" y="62.3116" width="49.375" height="49.375" rx="12.2138" stroke="#E9ECFF" stroke-opacity="0.1" stroke-width="0.519737"/>
<g clip-path="url(#clip1_6094_85039)">
<path d="M599.925 90.2404C599.925 91.6744 598.766 92.8334 597.332 92.8334C595.898 92.8334 594.739 91.6744 594.739 90.2404C594.739 88.8064 595.898 87.6475 597.332 87.6475H599.925V90.2404ZM601.222 90.2404C601.222 88.8064 602.381 87.6475 603.815 87.6475C605.249 87.6475 606.408 88.8064 606.408 90.2404V96.7228C606.408 98.1568 605.249 99.3158 603.815 99.3158C602.381 99.3158 601.222 98.1568 601.222 96.7228V90.2404Z" fill="#E01E5A"/>
<path d="M603.811 79.8295C602.377 79.8295 601.218 78.6705 601.218 77.2365C601.218 75.8025 602.377 74.6436 603.811 74.6436C605.245 74.6436 606.404 75.8025 606.404 77.2365V79.8295H603.811ZM603.811 81.1456C605.245 81.1456 606.404 82.3046 606.404 83.7385C606.404 85.1725 605.245 86.3315 603.811 86.3315H597.309C595.875 86.3315 594.716 85.1725 594.716 83.7385C594.716 82.3046 595.875 81.1456 597.309 81.1456H603.811Z" fill="#36C5F0"/>
<path d="M614.206 83.7385C614.206 82.3046 615.365 81.1456 616.799 81.1456C618.233 81.1456 619.392 82.3046 619.392 83.7385C619.392 85.1725 618.233 86.3315 616.799 86.3315H614.206V83.7385ZM612.91 83.7385C612.91 85.1725 611.751 86.3315 610.317 86.3315C608.883 86.3315 607.724 85.1725 607.724 83.7385V77.2365C607.724 75.8025 608.883 74.6436 610.317 74.6436C611.751 74.6436 612.91 75.8025 612.91 77.2365V83.7385Z" fill="#2EB67D"/>
<path d="M610.317 94.1298C611.751 94.1298 612.91 95.2888 612.91 96.7228C612.91 98.1568 611.751 99.3158 610.317 99.3158C608.883 99.3158 607.724 98.1568 607.724 96.7228V94.1298H610.317ZM610.317 92.8334C608.883 92.8334 607.724 91.6744 607.724 90.2404C607.724 88.8064 608.883 87.6475 610.317 87.6475H616.819C618.253 87.6475 619.412 88.8064 619.412 90.2404C619.412 91.6744 618.253 92.8334 616.819 92.8334H610.317Z" fill="#ECB22E"/>
</g>
</g>
<g filter="url(#filter5_b_6094_85039)">
<rect y="62.0518" width="49.8947" height="49.8947" rx="12.4737" fill="#24201F"/>
<rect x="0.259868" y="62.3116" width="49.375" height="49.375" rx="12.2138" stroke="#E9ECFF" stroke-opacity="0.1" stroke-width="0.519737"/>
<path d="M24.9399 74.5254L12.4814 86.9991H24.9399V99.4728L37.4136 86.9991V74.5254H24.9399Z" fill="#FF4876"/>
</g>
<g filter="url(#filter6_b_6094_85039)">
<rect x="399.156" y="51.6572" width="49.8947" height="49.8947" rx="12.4737" fill="#24201F"/>
<rect x="399.416" y="51.9171" width="49.375" height="49.375" rx="12.2138" stroke="#E9ECFF" stroke-opacity="0.1" stroke-width="0.519737"/>
<g clip-path="url(#clip2_6094_85039)">
<path d="M437.513 77.2279C437.514 77.0182 437.406 76.823 437.227 76.7133H437.224L437.213 76.7071L427.92 71.2062C427.88 71.1791 427.838 71.1543 427.795 71.132C427.436 70.9469 427.01 70.9469 426.651 71.132C426.608 71.1543 426.567 71.1791 426.526 71.2062L417.234 76.7071L417.222 76.7133C416.938 76.89 416.851 77.2634 417.028 77.5474C417.08 77.6311 417.152 77.7008 417.237 77.7505L426.53 83.2514C426.57 83.2783 426.612 83.3031 426.654 83.3256C427.013 83.5108 427.439 83.5108 427.798 83.3256C427.841 83.3031 427.883 83.2783 427.923 83.2514L437.216 77.7505C437.401 77.6423 437.515 77.4428 437.513 77.2279Z" fill="#0A2767"/>
<path d="M418.317 73.5553H424.416V79.1454H418.317V73.5553ZM436.266 67.873V65.3159C436.28 64.6765 435.774 64.1462 435.135 64.1309H419.31C418.67 64.1462 418.164 64.6765 418.179 65.3159V67.873L427.534 70.3677L436.266 67.873Z" fill="#0364B8"/>
<path d="M418.179 67.873H424.416V73.4862H418.179V67.873Z" fill="#0078D4"/>
<path d="M430.65 67.873H424.413V73.4862L430.65 79.0994H436.263V73.4862L430.65 67.873Z" fill="#28A8EA"/>
<path d="M424.413 73.4854H430.65V79.0985H424.413V73.4854Z" fill="#0078D4"/>
<path d="M424.413 79.0996H430.65V84.7128H424.413V79.0996Z" fill="#0364B8"/>
<path d="M418.312 79.1455H424.41V84.2273H418.312V79.1455Z" fill="#14447D"/>
<path d="M430.655 79.0996H436.268V84.7128H430.655V79.0996Z" fill="#0078D4"/>
<path d="M437.225 77.7169L437.213 77.7231L427.92 82.9496C427.879 82.9745 427.838 82.9982 427.795 83.0194C427.637 83.0946 427.466 83.137 427.291 83.1442L426.784 82.8473C426.741 82.8257 426.699 82.8018 426.659 82.7756L417.241 77.4007H417.237L416.929 77.2285V87.8087C416.934 88.5146 417.509 89.083 418.215 89.0785H436.244C436.254 89.0785 436.264 89.0735 436.275 89.0735C436.424 89.064 436.571 89.0333 436.711 88.9825C436.772 88.9567 436.831 88.9263 436.887 88.8914C436.928 88.8677 437 88.816 437 88.816C437.32 88.5795 437.509 88.2062 437.51 87.8087V77.2285C437.51 77.4309 437.401 77.6175 437.225 77.7169Z" fill="url(#paint0_linear_6094_85039)"/>
<path opacity="0.5" d="M437.01 77.1862V77.8348L427.293 84.5251L417.233 77.4045C417.233 77.401 417.23 77.3982 417.227 77.3982L416.304 76.8432V76.3754L416.684 76.3691L417.489 76.8307L417.507 76.8369L417.576 76.8806C417.576 76.8806 427.031 82.2754 427.056 82.2879L427.418 82.4999C427.449 82.4875 427.48 82.475 427.518 82.4625C427.536 82.45 436.904 77.1799 436.904 77.1799L437.01 77.1862Z" fill="#0A2767"/>
<path d="M437.225 77.7169L437.213 77.7237L427.92 82.9502C427.879 82.9751 427.838 82.9988 427.795 83.02C427.434 83.1963 427.012 83.1963 426.651 83.02C426.609 82.9989 426.567 82.9756 426.527 82.9502L417.234 77.7237L417.222 77.7169C417.043 77.6196 416.931 77.4326 416.929 77.2285V87.8087C416.933 88.5145 417.509 89.083 418.215 89.0785C418.215 89.0785 418.215 89.0785 418.215 89.0785H436.224C436.93 89.083 437.506 88.5145 437.51 87.8087C437.51 87.8087 437.51 87.8087 437.51 87.8087V77.2285C437.51 77.4309 437.401 77.6175 437.225 77.7169Z" fill="#1490DF"/>
<path opacity="0.1" d="M428.058 82.873L427.919 82.951C427.878 82.9767 427.837 83.0002 427.794 83.0215C427.641 83.0967 427.474 83.1408 427.304 83.1512L430.839 87.3324L437.007 88.8186C437.176 88.691 437.31 88.5231 437.398 88.3303L428.058 82.873Z" fill="black"/>
<path opacity="0.05" d="M428.688 82.5186L427.919 82.9508C427.878 82.9764 427.837 83 427.794 83.0212C427.641 83.0964 427.474 83.1405 427.304 83.151L428.96 87.7182L437.009 88.8165C437.326 88.5784 437.513 88.2051 437.513 87.8086V87.672L428.688 82.5186Z" fill="black"/>
<path d="M418.232 89.0785H436.222C436.499 89.0799 436.769 88.9925 436.993 88.829L426.783 82.8485C426.74 82.827 426.698 82.8031 426.658 82.7768L417.241 77.4019H417.236L416.929 77.2285V87.7725C416.928 88.4931 417.512 89.0778 418.232 89.0785Z" fill="#28A8EA"/>
<path opacity="0.1" d="M425.66 70.2633V83.5665C425.659 84.0329 425.376 84.4522 424.943 84.6268C424.809 84.6843 424.665 84.7141 424.519 84.7141H416.929V69.7438H418.176V69.1201H424.519C425.149 69.1225 425.659 69.6332 425.66 70.2633Z" fill="black"/>
<path opacity="0.2" d="M425.037 70.8874V84.1906C425.038 84.3412 425.006 84.4904 424.943 84.6271C424.77 85.0541 424.356 85.3342 423.895 85.3363H416.929V69.7442H423.895C424.076 69.7424 424.255 69.7875 424.413 69.8752C424.795 70.0678 425.036 70.4593 425.037 70.8874Z" fill="black"/>
<path opacity="0.2" d="M425.037 70.8874V82.9432C425.034 83.573 424.525 84.0835 423.895 84.0889H416.929V69.7442H423.895C424.076 69.7424 424.255 69.7875 424.413 69.8752C424.795 70.0678 425.036 70.4593 425.037 70.8874Z" fill="black"/>
<path opacity="0.2" d="M424.413 70.8873V82.9432C424.412 83.5739 423.902 84.0858 423.272 84.0889H416.929V69.7441H423.272C423.902 69.7445 424.413 70.256 424.413 70.8867C424.413 70.8869 424.413 70.8871 424.413 70.8873Z" fill="black"/>
<path d="M411.838 69.7441H423.272C423.904 69.7441 424.415 70.256 424.415 70.8873V82.322C424.415 82.9533 423.904 83.4652 423.272 83.4652H411.838C411.206 83.4652 410.694 82.9533 410.694 82.322V70.8873C410.694 70.256 411.206 69.7441 411.838 69.7441Z" fill="url(#paint1_linear_6094_85039)"/>
<path d="M414.271 74.5386C414.553 73.9383 415.008 73.4359 415.577 73.096C416.208 72.735 416.926 72.555 417.652 72.5758C418.326 72.5612 418.99 72.7319 419.573 73.0692C420.121 73.396 420.562 73.8748 420.843 74.4475C421.149 75.0786 421.302 75.7732 421.288 76.4745C421.303 77.2074 421.146 77.9337 420.83 78.595C420.542 79.1882 420.087 79.6841 419.52 80.0214C418.915 80.369 418.226 80.5441 417.528 80.5278C416.841 80.5444 416.162 80.3718 415.565 80.0289C415.013 79.7016 414.566 79.2223 414.278 78.648C413.97 78.026 413.816 77.3393 413.828 76.6454C413.815 75.9187 413.967 75.1985 414.271 74.5386ZM415.663 77.9252C415.814 78.3047 416.068 78.6338 416.398 78.8744C416.734 79.1091 417.136 79.2302 417.546 79.2199C417.982 79.2372 418.412 79.112 418.771 78.8632C419.096 78.6234 419.344 78.2933 419.484 77.9139C419.64 77.4903 419.718 77.0414 419.712 76.5899C419.717 76.134 419.644 75.6806 419.497 75.249C419.367 74.8593 419.127 74.5156 418.806 74.2598C418.456 73.9992 418.028 73.8671 417.592 73.8856C417.173 73.8747 416.762 73.9968 416.417 74.2342C416.082 74.4758 415.823 74.8079 415.669 75.1916C415.328 76.0711 415.327 77.0457 415.664 77.9264L415.663 77.9252Z" fill="white"/>
<path d="M430.655 67.873H436.268V73.4862H430.655V67.873Z" fill="#50D9FF"/>
</g>
</g>
<g filter="url(#filter7_b_6094_85039)">
<rect x="182.945" y="51.6572" width="49.8947" height="49.8947" rx="12.4737" fill="#24201F"/>
<rect x="183.205" y="51.9171" width="49.375" height="49.375" rx="12.2138" stroke="#E9ECFF" stroke-opacity="0.1" stroke-width="0.519737"/>
<g clip-path="url(#clip3_6094_85039)">
<path d="M214.266 72.3418V69.3709C215.067 68.9965 215.581 68.1937 215.586 67.3095V67.2408C215.586 65.9758 214.56 64.9503 213.295 64.9503H213.228C211.963 64.9503 210.938 65.9758 210.938 67.2408V67.3095C210.941 67.7439 211.068 68.1685 211.303 68.5336C211.539 68.8987 211.873 69.1893 212.268 69.3714V72.3418C211.14 72.5139 210.075 72.9843 209.188 73.6989L201.038 67.3558C201.096 67.1467 201.127 66.9302 201.13 66.7138V66.7085C201.13 65.2851 199.976 64.1309 198.552 64.1309C197.129 64.1309 195.975 65.2851 195.975 66.7085C195.975 68.1308 197.127 69.2846 198.549 69.2866C198.996 69.2827 199.434 69.1603 199.819 68.9341L207.843 75.1768C207.139 76.2411 206.764 77.4888 206.763 78.7649C206.763 80.1 207.176 81.4054 207.942 82.4977L205.502 84.9379C205.305 84.8796 205.101 84.8499 204.896 84.8497C203.728 84.8497 202.781 85.7963 202.781 86.9637C202.781 88.1316 203.728 89.0782 204.896 89.0782C206.063 89.0782 207.01 88.1316 207.01 86.9637V86.9574C207.008 86.7504 206.975 86.545 206.911 86.3481L209.325 83.9323C210.464 84.8098 211.862 85.2859 213.3 85.2864C216.895 85.2864 219.811 82.371 219.811 78.7756C219.811 75.5561 217.456 72.8191 214.273 72.3384L214.266 72.3418ZM213.272 82.1102C211.479 82.0361 210.062 80.5606 210.062 78.7654C210.062 77.0384 211.377 75.5941 213.096 75.4322H213.272C215.017 75.5653 216.365 77.0203 216.365 78.7703C216.365 80.5207 215.017 81.9757 213.273 82.1083L213.272 82.1102Z" fill="#FF7A59"/>
</g>
</g>
<path fill-rule="evenodd" clip-rule="evenodd" d="M49.8906 86.2195H106.064C112.236 86.2195 117.239 91.2224 117.239 97.3938V193.025C117.239 198.317 121.513 202.61 126.798 202.64H132.09C133.057 202.367 134.077 202.221 135.131 202.221H212.037C209.122 200.205 207.213 196.838 207.213 193.026V101.552H208.772V193.026C208.772 197.356 211.634 201.017 215.57 202.221H247V203.781H246.997V204.2H218.387L218.34 204.2L218.33 204.2H185.04C179.757 204.231 175.483 208.524 175.483 213.815V313.002H173.924V213.815C173.924 209.724 176.121 206.147 179.401 204.2H132.315C128.379 205.404 125.516 209.065 125.516 213.396V309.606C125.516 315.778 120.513 320.781 114.342 320.781H58V319.221H114.342C119.652 319.221 123.957 314.917 123.957 309.606V213.396C123.957 209.583 125.866 206.216 128.781 204.2H126.854C126.833 204.2 126.813 204.2 126.792 204.2H80.9922V202.64H121.157C117.877 200.693 115.679 197.116 115.679 193.025V97.3938C115.679 92.0835 111.375 87.7787 106.064 87.7787H49.8906V86.2195Z" fill="url(#paint2_linear_6094_85039)"/>
<path fill-rule="evenodd" clip-rule="evenodd" d="M582.11 86.2195H525.978C519.807 86.2195 514.804 91.2224 514.804 97.3938V193.025C514.804 198.306 510.547 202.592 505.278 202.64H496.96H446.973H419.413C422.692 200.693 424.889 197.116 424.889 193.025V101.552H423.33V193.025C423.33 198.303 419.078 202.587 413.814 202.64H385.645H385.644H385.127V204.199H385.129V204.2H413.715L413.761 204.2H447.063C452.332 204.248 456.588 208.534 456.588 213.814V309.446H458.147V213.814C458.147 209.724 455.949 206.147 452.67 204.2H497.05C502.319 204.248 506.575 208.534 506.575 213.814V309.446C506.575 315.617 511.578 320.62 517.75 320.62H573.789V319.061H517.75C512.439 319.061 508.134 314.756 508.134 309.446V213.814C508.134 209.724 505.937 206.147 502.658 204.2H505.189C505.221 204.2 505.253 204.2 505.286 204.199H548.844V202.64H510.886C514.165 200.693 516.363 197.116 516.363 193.025V97.3938C516.363 92.0835 520.668 87.7787 525.978 87.7787H582.11V86.2195Z" fill="url(#paint3_linear_6094_85039)"/>
<g filter="url(#filter8_b_6094_85039)">
<rect x="432" y="309" width="49.8947" height="49.8947" rx="12.4737" fill="#24201F"/>
<rect x="432.26" y="309.26" width="49.375" height="49.375" rx="12.2138" stroke="#E9ECFF" stroke-opacity="0.1" stroke-width="0.519737"/>
<g clip-path="url(#clip4_6094_85039)">
<path d="M455.567 321.604C459.594 321.604 465.656 322.852 468.501 325.675C469.223 326.397 470.164 327.798 470.164 329.877C470.164 333.553 467.209 339.177 463.971 342.46C462.286 344.145 459.616 346.355 456.005 346.355C452.482 346.355 449.79 343.948 449.024 343.182C446.048 340.184 443.903 335.654 443.903 331.408C443.903 328.739 444.669 326.397 446.595 324.449C448.389 322.633 451.475 321.604 455.567 321.604ZM460.557 336.245C461.914 334.888 462.286 333.203 462.286 332.284C462.286 331.605 462.111 330.621 461.279 329.789C459.988 328.498 458.587 328.148 457.034 328.148C455.086 328.148 453.773 328.76 452.898 329.636C452.219 330.314 451.628 331.386 451.628 332.896C451.628 334.406 452.416 335.851 453.291 336.726C454.101 337.536 455.348 338.127 456.64 338.127C457.931 338.127 459.2 337.601 460.557 336.245Z" fill="#5952FF"/>
</g>
</g>
<g filter="url(#filter9_b_6094_85039)">
<rect x="549" y="178" width="49.8947" height="49.8947" rx="12.4737" fill="#24201F"/>
<rect x="549.26" y="178.26" width="49.375" height="49.375" rx="12.2138" stroke="#E9ECFF" stroke-opacity="0.1" stroke-width="0.519737"/>
<g clip-path="url(#clip5_6094_85039)">
<path d="M578.257 190.474V215.421L584.633 210.343V193.94L578.257 190.474ZM575.291 209.973L570.158 212.215V192.642L575.291 194.162V209.973ZM563.263 209.398L567.192 208.359V195.867L563.281 195.237L563.263 209.398Z" fill="#773CBD"/>
</g>
</g>
<g filter="url(#filter10_b_6094_85039)">
<rect x="573" y="293.894" width="49.8947" height="49.8947" rx="12.4737" fill="#24201F"/>
<rect x="573.26" y="294.153" width="49.375" height="49.375" rx="12.2138" stroke="#E9ECFF" stroke-opacity="0.1" stroke-width="0.519737"/>
<g clip-path="url(#clip6_6094_85039)">
<path d="M597.947 331.315C604.836 331.315 610.421 325.73 610.421 318.841C610.421 311.952 604.836 306.367 597.947 306.367C591.058 306.367 585.474 311.952 585.474 318.841C585.474 325.73 591.058 331.315 597.947 331.315Z" fill="#2196F3"/>
<path fill-rule="evenodd" clip-rule="evenodd" d="M592.795 322.406H601.045V316.357C601.045 315.446 600.307 314.707 599.395 314.707H591.146V320.756C591.146 321.668 591.884 322.406 592.795 322.406ZM602.145 320.207L605.445 322.406V314.707L602.145 316.907L602.145 320.207Z" fill="white"/>
</g>
</g>
<g filter="url(#filter11_b_6094_85039)">
<rect x="150" y="313" width="49.8947" height="49.8947" rx="12.4737" fill="#24201F"/>
<rect x="150.26" y="313.26" width="49.375" height="49.375" rx="12.2138" stroke="#E9ECFF" stroke-opacity="0.1" stroke-width="0.519737"/>
<g clip-path="url(#clip7_6094_85039)">
<path fill-rule="evenodd" clip-rule="evenodd" d="M165.246 350.421H184.649C186.18 350.421 187.421 349.18 187.421 347.649V328.246C187.421 326.715 186.18 325.474 184.649 325.474H165.246C163.715 325.474 162.474 326.715 162.474 328.246V347.649C162.474 349.18 163.715 350.421 165.246 350.421Z" fill="#007EBB"/>
<path fill-rule="evenodd" clip-rule="evenodd" d="M183.952 346.956H180.25V340.651C180.25 338.922 179.593 337.956 178.225 337.956C176.736 337.956 175.959 338.961 175.959 340.651V346.956H172.391V334.944H175.959V336.562C175.959 336.562 177.031 334.577 179.58 334.577C182.128 334.577 183.952 336.133 183.952 339.351V346.956ZM168.135 333.371C166.919 333.371 165.935 332.379 165.935 331.155C165.935 329.931 166.919 328.938 168.135 328.938C169.35 328.938 170.334 329.931 170.334 331.155C170.334 332.379 169.35 333.371 168.135 333.371ZM166.292 346.956H170.013V334.944H166.292V346.956Z" fill="white"/>
</g>
</g>
<rect x="31" y="178" width="49.8947" height="49.8947" rx="12" fill="white"/>
<rect x="31" y="178" width="49.8947" height="49.8947" rx="12" fill="#110D0D"/>
<g filter="url(#filter12_b_6094_85039)">
<rect x="31" y="178" width="49.8947" height="49.8947" rx="12.4737" fill="#24201F"/>
<rect x="31.2599" y="178.26" width="49.375" height="49.375" rx="12.2138" stroke="#E9ECFF" stroke-opacity="0.1" stroke-width="0.519737"/>
<g clip-path="url(#clip8_6094_85039)">
<path d="M41.5843 215.421H46.8762V202.57L39.3164 196.9V213.153C39.3164 214.408 40.3332 215.421 41.5843 215.421Z" fill="#4285F4"/>
<path d="M65.0195 215.421H70.3114C71.5663 215.421 72.5793 214.404 72.5793 213.153V196.9L65.0195 202.57" fill="#34A853"/>
<path d="M65.0195 192.742V202.57L72.5793 196.9V193.876C72.5793 191.072 69.3778 189.473 67.1363 191.155" fill="#FBBC04"/>
<path d="M46.8789 202.569V192.741L55.9507 199.545L65.0224 192.741V202.569L55.9507 209.373" fill="#EA4335"/>
<path d="M39.3164 193.876V196.9L46.8762 202.57V192.742L44.7595 191.155C42.5142 189.473 39.3164 191.072 39.3164 193.876Z" fill="#C5221F"/>
</g>
</g>
<g filter="url(#filter13_b_6094_85039)">
<rect x="8" y="296" width="49.8947" height="49.8947" rx="12.4737" fill="#24201F"/>
<rect x="8.25987" y="296.26" width="49.375" height="49.375" rx="12.2138" stroke="#E9ECFF" stroke-opacity="0.1" stroke-width="0.519737"/>
<g clip-path="url(#clip9_6094_85039)">
<mask id="mask0_6094_85039" style="mask-type:luminance" maskUnits="userSpaceOnUse" x="15" y="308" width="36" height="26">
<path d="M15.126 308.539H50.6531V333.356H15.126V308.539Z" fill="white"/>
</mask>
<g mask="url(#mask0_6094_85039)">
<path fill-rule="evenodd" clip-rule="evenodd" d="M29.8777 311.257C31.0245 310.063 32.6206 309.324 34.3839 309.324C36.735 309.324 38.7725 310.63 39.8697 312.576C40.8436 312.141 41.8985 311.916 42.9653 311.916C47.1972 311.916 50.6323 315.378 50.6323 319.649C50.6323 323.92 47.1972 327.381 42.9653 327.381C42.448 327.381 41.9439 327.329 41.4501 327.231C40.4901 328.942 38.655 330.105 36.5652 330.105C35.7143 330.106 34.8744 329.913 34.1096 329.54C33.1365 331.826 30.8704 333.433 28.232 333.433C25.476 333.433 23.138 331.695 22.2368 329.253C21.8356 329.338 21.4268 329.38 21.0168 329.38C17.7384 329.38 15.0869 326.689 15.0869 323.385C15.0869 321.164 16.2807 319.231 18.0519 318.186C17.6761 317.321 17.4827 316.387 17.4837 315.443C17.4837 311.629 20.5793 308.547 24.3932 308.547C26.6267 308.547 28.6251 309.611 29.879 311.264" fill="#00A1E0"/>
</g>
<path fill-rule="evenodd" clip-rule="evenodd" d="M20.2669 321.444C20.2445 321.502 20.2748 321.515 20.282 321.525C20.3488 321.573 20.4166 321.608 20.4845 321.647C20.8476 321.839 21.1898 321.896 21.5477 321.896C22.2765 321.896 22.7297 321.508 22.7297 320.883V320.871C22.7297 320.294 22.2177 320.084 21.7397 319.933L21.6771 319.913C21.3153 319.796 21.0031 319.694 21.0031 319.456V319.444C21.0031 319.24 21.186 319.09 21.4681 319.09C21.7816 319.09 22.1552 319.194 22.3942 319.326C22.3942 319.326 22.465 319.372 22.4907 319.304C22.5047 319.267 22.6265 318.941 22.6396 318.904C22.6535 318.866 22.6292 318.837 22.6042 318.822C22.3299 318.655 21.9511 318.541 21.5593 318.541L21.4865 318.541C20.8191 318.541 20.3528 318.945 20.3528 319.522V319.535C20.3528 320.143 20.8674 320.342 21.3481 320.479L21.4254 320.503C21.7755 320.611 22.0785 320.704 22.0785 320.95V320.962C22.0785 321.188 21.8813 321.356 21.5652 321.356C21.4423 321.356 21.0506 321.354 20.6261 321.086C20.5747 321.056 20.5455 321.035 20.5059 321.01C20.485 320.998 20.4327 320.975 20.41 321.043L20.2663 321.443M30.9375 321.443C30.9152 321.501 30.9455 321.513 30.953 321.524C31.0194 321.572 31.0875 321.607 31.1554 321.646C31.5185 321.838 31.8607 321.895 32.2186 321.895C32.9474 321.895 33.4007 321.507 33.4007 320.882V320.87C33.4007 320.293 32.89 320.082 32.4106 319.932L32.3481 319.912C31.9863 319.795 31.6741 319.693 31.6741 319.455V319.443C31.6741 319.239 31.8569 319.089 32.1391 319.089C32.4525 319.089 32.8248 319.193 33.0651 319.325C33.0651 319.325 33.1359 319.371 33.1618 319.303C33.1756 319.266 33.2976 318.939 33.3094 318.903C33.3234 318.865 33.2989 318.836 33.2741 318.821C32.9998 318.654 32.621 318.54 32.2292 318.54L32.1563 318.54C31.4889 318.54 31.0226 318.944 31.0226 319.521V319.534C31.0226 320.142 31.5372 320.341 32.0179 320.478L32.0951 320.502C32.4464 320.61 32.7481 320.703 32.7481 320.949V320.961C32.7481 321.187 32.5509 321.355 32.2348 321.355C32.1116 321.355 31.7189 321.353 31.2957 321.085C31.2444 321.055 31.2143 321.035 31.1754 321.009C31.1622 321.001 31.1007 320.977 31.0797 321.042L30.936 321.442M38.2243 320.219C38.2243 320.572 38.1584 320.85 38.0297 321.048C37.9011 321.242 37.707 321.338 37.4367 321.338C37.1663 321.338 36.973 321.243 36.8463 321.049C36.7187 320.853 36.6543 320.573 36.6543 320.221C36.6543 319.868 36.7191 319.591 36.8463 319.397C36.9727 319.203 37.165 319.111 37.4367 319.111C37.7083 319.111 37.9017 319.204 38.0297 319.397C38.1592 319.591 38.2243 319.868 38.2243 320.221M38.8329 319.566C38.773 319.364 38.6801 319.186 38.556 319.037C38.4318 318.889 38.2752 318.768 38.0884 318.682C37.903 318.595 37.6835 318.552 37.4354 318.552C37.1872 318.552 36.9691 318.596 36.7823 318.682C36.5968 318.769 36.4388 318.889 36.3147 319.037C36.1909 319.186 36.0979 319.364 36.0378 319.566C35.9784 319.768 35.9482 319.987 35.9482 320.221C35.9482 320.455 35.9784 320.674 36.0378 320.875C36.0975 321.078 36.1906 321.255 36.3147 321.404C36.4389 321.553 36.5968 321.672 36.7823 321.757C36.9691 321.841 37.1885 321.885 37.4354 321.885C37.6822 321.885 37.9017 321.841 38.0871 321.757C38.2726 321.672 38.4306 321.553 38.5547 321.404C38.6787 321.255 38.7715 321.078 38.8316 320.875C38.8909 320.674 38.9211 320.455 38.9211 320.221C38.9211 319.988 38.8909 319.768 38.8316 319.566M43.8342 321.238C43.8142 321.179 43.7564 321.201 43.7564 321.201C43.668 321.235 43.5736 321.267 43.473 321.282C43.3717 321.298 43.2588 321.306 43.1399 321.306C42.8461 321.306 42.611 321.219 42.4438 321.045C42.2753 320.871 42.1812 320.592 42.1825 320.213C42.1835 319.868 42.2668 319.61 42.4163 319.411C42.5639 319.215 42.7912 319.113 43.0916 319.113C43.3424 319.113 43.5344 319.142 43.7355 319.205C43.7355 319.205 43.7832 319.226 43.8061 319.163C43.8595 319.016 43.8989 318.91 43.9563 318.748C43.9725 318.701 43.9328 318.682 43.9183 318.676C43.8394 318.645 43.6531 318.595 43.5121 318.574C43.3801 318.553 43.2273 318.543 43.0549 318.543C42.7989 318.543 42.5716 318.587 42.377 318.674C42.1824 318.76 42.0178 318.88 41.8872 319.029C41.7566 319.178 41.6573 319.355 41.5907 319.558C41.5248 319.759 41.4915 319.98 41.4915 320.213C41.4915 320.718 41.6273 321.126 41.8964 321.426C42.1654 321.726 42.5703 321.878 43.098 321.878C43.4102 321.878 43.7302 321.814 43.9601 321.723C43.9601 321.723 44.004 321.702 43.9849 321.651L43.8347 321.238M44.8992 319.88C44.9283 319.684 44.982 319.521 45.0664 319.394C45.1927 319.201 45.3851 319.095 45.6555 319.095C45.9258 319.095 46.1048 319.201 46.2328 319.394C46.3177 319.521 46.3548 319.69 46.3686 319.88L44.8927 319.88L44.8992 319.88ZM46.9498 319.449C46.898 319.254 46.7696 319.057 46.686 318.967C46.5528 318.825 46.4235 318.724 46.2942 318.669C46.1075 318.59 45.9066 318.549 45.7038 318.549C45.4465 318.549 45.2127 318.593 45.0233 318.681C44.8339 318.77 44.6745 318.892 44.5491 319.043C44.4239 319.195 44.3297 319.373 44.2696 319.579C44.2096 319.781 44.1792 320.003 44.1792 320.236C44.1792 320.473 44.2107 320.694 44.2726 320.894C44.3352 321.095 44.4359 321.271 44.5717 321.418C44.7076 321.565 44.8813 321.68 45.0903 321.761C45.298 321.841 45.55 321.883 45.8387 321.882C46.4343 321.88 46.7478 321.748 46.8758 321.676C46.8986 321.663 46.9202 321.641 46.8933 321.577L46.7588 321.2C46.7381 321.144 46.6812 321.164 46.6812 321.164C46.5336 321.219 46.3246 321.318 45.8348 321.317C45.5148 321.316 45.2784 321.222 45.1295 321.074C44.978 320.922 44.9022 320.702 44.8904 320.388L46.9542 320.39C46.9542 320.39 47.0085 320.389 47.0141 320.336C47.0163 320.314 47.0848 319.913 46.9526 319.449L46.9498 319.449ZM28.4026 319.88C28.4317 319.684 28.4855 319.521 28.5698 319.394C28.6962 319.201 28.8885 319.095 29.1588 319.095C29.4292 319.095 29.6082 319.201 29.7362 319.394C29.8209 319.521 29.858 319.69 29.872 319.88L28.3961 319.88L28.4026 319.88ZM30.4532 319.449C30.4015 319.254 30.273 319.057 30.1894 318.967C30.0562 318.825 29.9269 318.724 29.7975 318.669C29.6109 318.59 29.41 318.549 29.2072 318.549C28.9499 318.549 28.7161 318.593 28.5267 318.681C28.3373 318.77 28.1779 318.892 28.0525 319.043C27.9275 319.195 27.8331 319.373 27.773 319.579C27.7131 319.781 27.6829 320.003 27.6829 320.236C27.6829 320.473 27.7141 320.694 27.7764 320.894C27.8389 321.095 27.9397 321.271 28.0742 321.418C28.2101 321.565 28.3838 321.68 28.5928 321.761C28.8004 321.841 29.0512 321.883 29.3412 321.882C29.9368 321.88 30.2503 321.748 30.3783 321.676C30.401 321.663 30.4227 321.641 30.3956 321.577L30.2611 321.2C30.2403 321.144 30.1834 321.164 30.1834 321.164C30.0358 321.219 29.8268 321.318 29.337 321.317C29.0183 321.316 28.7806 321.222 28.6317 321.074C28.4802 320.922 28.4044 320.702 28.3927 320.388L30.4564 320.39C30.4564 320.39 30.5107 320.389 30.5163 320.336C30.5185 320.314 30.587 319.913 30.4547 319.449L30.4532 319.449ZM23.9486 321.225C23.8678 321.161 23.8565 321.145 23.8298 321.103C23.7889 321.04 23.768 320.95 23.768 320.835C23.768 320.655 23.8281 320.524 23.9522 320.437C23.9508 320.437 24.1298 320.283 24.5504 320.288C24.7376 320.291 24.9243 320.307 25.1094 320.336V321.272H25.1097C25.1097 321.272 24.8484 321.328 24.5532 321.346C24.134 321.371 23.9485 321.225 23.9498 321.226L23.9486 321.225ZM24.7689 319.775C24.6853 319.769 24.5769 319.766 24.4476 319.766C24.2712 319.766 24.1001 319.788 23.9408 319.831C23.7801 319.875 23.6352 319.942 23.5111 320.031C23.3866 320.12 23.2843 320.236 23.212 320.371C23.1389 320.507 23.1017 320.666 23.1017 320.846C23.1017 321.029 23.1335 321.187 23.1962 321.316C23.2576 321.445 23.3501 321.556 23.4652 321.639C23.5798 321.722 23.7212 321.784 23.8845 321.821C24.0465 321.858 24.2293 321.876 24.4305 321.876C24.6421 321.876 24.8524 321.858 25.0561 321.824C25.2297 321.794 25.4025 321.761 25.5746 321.723C25.6434 321.707 25.7196 321.687 25.7196 321.687C25.7706 321.674 25.7667 321.619 25.7667 321.619L25.7655 319.738C25.7655 319.326 25.6552 319.019 25.4376 318.829C25.2208 318.64 24.9034 318.545 24.492 318.545C24.3379 318.545 24.0884 318.566 23.9395 318.595C23.9395 318.595 23.4902 318.683 23.3047 318.828C23.3047 318.828 23.2639 318.853 23.2862 318.91L23.4324 319.302C23.4506 319.352 23.5001 319.335 23.5001 319.335C23.5001 319.335 23.5156 319.329 23.5339 319.318C23.9297 319.103 24.4312 319.109 24.4312 319.109C24.6533 319.109 24.8257 319.154 24.9406 319.242C25.0531 319.329 25.1104 319.459 25.1104 319.733V319.821C24.9341 319.795 24.7708 319.78 24.7708 319.78L24.7689 319.775ZM41.3569 318.713C41.3599 318.707 41.3615 318.699 41.3615 318.692C41.3615 318.684 41.3601 318.677 41.3572 318.67C41.3543 318.663 41.35 318.657 41.3447 318.651C41.3393 318.646 41.333 318.642 41.326 318.639C41.2908 318.626 41.1157 318.589 40.9812 318.581C40.7225 318.564 40.5789 318.608 40.4496 318.666C40.3218 318.724 40.1805 318.816 40.1021 318.923L40.1019 318.673C40.1019 318.638 40.0774 318.61 40.0427 318.61H39.515C39.4808 318.61 39.456 318.638 39.456 318.673V321.742C39.456 321.759 39.4626 321.775 39.4743 321.786C39.4861 321.798 39.5019 321.805 39.5185 321.805H40.0593C40.0758 321.805 40.0917 321.798 40.1034 321.786C40.1151 321.775 40.1217 321.759 40.1217 321.742V320.201C40.1217 319.994 40.1444 319.789 40.1898 319.66C40.2344 319.532 40.2952 319.43 40.37 319.357C40.4414 319.286 40.5288 319.234 40.6247 319.204C40.7147 319.178 40.8079 319.165 40.9016 319.165C41.0094 319.165 41.1276 319.193 41.1276 319.193C41.1673 319.197 41.1894 319.173 41.2028 319.137C41.2382 319.043 41.3386 318.761 41.3582 318.705" fill="#FFFFFE"/>
<path fill-rule="evenodd" clip-rule="evenodd" d="M36.308 317.297C36.2411 317.276 36.1731 317.26 36.1043 317.248C36.0118 317.233 35.9181 317.226 35.8243 317.227C35.4517 317.227 35.1579 317.332 34.9517 317.54C34.7469 317.746 34.6075 318.061 34.5376 318.474L34.5124 318.614H34.0447C34.0447 318.614 33.9876 318.612 33.9756 318.674L33.8988 319.102C33.8934 319.143 33.9111 319.169 33.9659 319.169H34.4212L33.9593 321.747C33.9231 321.955 33.8817 322.126 33.8358 322.255C33.7906 322.383 33.7465 322.479 33.6922 322.548C33.6395 322.616 33.5896 322.665 33.5035 322.694C33.4325 322.718 33.3507 322.729 33.2611 322.729C33.2112 322.729 33.1449 322.72 33.0959 322.711C33.0469 322.701 33.0214 322.69 32.9847 322.675C32.9847 322.675 32.9313 322.654 32.9103 322.708C32.8932 322.752 32.7718 323.085 32.7575 323.127C32.7428 323.167 32.7634 323.199 32.7892 323.209C32.8498 323.23 32.8949 323.244 32.9774 323.264C33.0921 323.291 33.1888 323.292 33.2793 323.292C33.4689 323.292 33.6417 323.266 33.785 323.214C33.9292 323.162 34.0547 323.071 34.1658 322.948C34.2858 322.816 34.3613 322.677 34.4335 322.487C34.505 322.3 34.5658 322.067 34.6146 321.795L35.0788 319.169H35.7574C35.7574 319.169 35.8146 319.171 35.8265 319.109L35.9033 318.68C35.9087 318.639 35.8912 318.614 35.8361 318.614H35.1774C35.1806 318.599 35.2105 318.367 35.2862 318.149C35.3184 318.056 35.3792 317.981 35.4306 317.929C35.4787 317.88 35.5379 317.843 35.6032 317.822C35.6748 317.8 35.7494 317.789 35.8243 317.79C35.8863 317.79 35.9472 317.798 35.9936 317.807C36.0575 317.821 36.0823 317.828 36.099 317.833C36.1661 317.853 36.1751 317.834 36.1883 317.801L36.3458 317.369C36.362 317.322 36.3226 317.302 36.308 317.297ZM27.103 321.753C27.103 321.787 27.0785 321.815 27.044 321.815H26.4976C26.463 321.815 26.4385 321.787 26.4385 321.753V317.355C26.4385 317.321 26.463 317.293 26.4976 317.293H27.044C27.0785 317.293 27.103 317.321 27.103 317.355V321.753Z" fill="#FFFFFE"/>
</g>
</g>
<defs>
<filter id="filter0_b_6094_85039" x="244.389" y="130.249" width="143.224" height="146.342" filterUnits="userSpaceOnUse" color-interpolation-filters="sRGB">
<feFlood flood-opacity="0" result="BackgroundImageFix"/>
<feGaussianBlur in="BackgroundImageFix" stdDeviation="1.55921"/>
<feComposite in2="SourceAlpha" operator="in" result="effect1_backgroundBlur_6094_85039"/>
<feBlend mode="normal" in="SourceGraphic" in2="effect1_backgroundBlur_6094_85039" result="shape"/>
</filter>
<filter id="filter1_b_6094_85039" x="261.429" y="147.288" width="109.145" height="112.263" filterUnits="userSpaceOnUse" color-interpolation-filters="sRGB">
<feFlood flood-opacity="0" result="BackgroundImageFix"/>
<feGaussianBlur in="BackgroundImageFix" stdDeviation="1.03947"/>
<feComposite in2="SourceAlpha" operator="in" result="effect1_backgroundBlur_6094_85039"/>
<feBlend mode="normal" in="SourceGraphic" in2="effect1_backgroundBlur_6094_85039" result="shape"/>
</filter>
<filter id="filter2_b_6094_85039" x="273.902" y="159.762" width="84.197" height="87.3159" filterUnits="userSpaceOnUse" color-interpolation-filters="sRGB">
<feFlood flood-opacity="0" result="BackgroundImageFix"/>
<feGaussianBlur in="BackgroundImageFix" stdDeviation="1.03947"/>
<feComposite in2="SourceAlpha" operator="in" result="effect1_backgroundBlur_6094_85039"/>
<feBlend mode="normal" in="SourceGraphic" in2="effect1_backgroundBlur_6094_85039" result="shape"/>
</filter>
<filter id="filter3_b_6094_85039" x="284.297" y="170.157" width="63.4079" height="66.5263" filterUnits="userSpaceOnUse" color-interpolation-filters="sRGB">
<feFlood flood-opacity="0" result="BackgroundImageFix"/>
<feGaussianBlur in="BackgroundImageFix" stdDeviation="1.03947"/>
<feComposite in2="SourceAlpha" operator="in" result="effect1_backgroundBlur_6094_85039"/>
<feBlend mode="normal" in="SourceGraphic" in2="effect1_backgroundBlur_6094_85039" result="shape"/>
</filter>
<filter id="filter4_b_6094_85039" x="580.03" y="59.9728" width="54.0524" height="54.0527" filterUnits="userSpaceOnUse" color-interpolation-filters="sRGB">
<feFlood flood-opacity="0" result="BackgroundImageFix"/>
<feGaussianBlur in="BackgroundImageFix" stdDeviation="1.03947"/>
<feComposite in2="SourceAlpha" operator="in" result="effect1_backgroundBlur_6094_85039"/>
<feBlend mode="normal" in="SourceGraphic" in2="effect1_backgroundBlur_6094_85039" result="shape"/>
</filter>
<filter id="filter5_b_6094_85039" x="-2.07895" y="59.9728" width="54.0524" height="54.0527" filterUnits="userSpaceOnUse" color-interpolation-filters="sRGB">
<feFlood flood-opacity="0" result="BackgroundImageFix"/>
<feGaussianBlur in="BackgroundImageFix" stdDeviation="1.03947"/>
<feComposite in2="SourceAlpha" operator="in" result="effect1_backgroundBlur_6094_85039"/>
<feBlend mode="normal" in="SourceGraphic" in2="effect1_backgroundBlur_6094_85039" result="shape"/>
</filter>
<filter id="filter6_b_6094_85039" x="397.077" y="49.5783" width="54.0524" height="54.0527" filterUnits="userSpaceOnUse" color-interpolation-filters="sRGB">
<feFlood flood-opacity="0" result="BackgroundImageFix"/>
<feGaussianBlur in="BackgroundImageFix" stdDeviation="1.03947"/>
<feComposite in2="SourceAlpha" operator="in" result="effect1_backgroundBlur_6094_85039"/>
<feBlend mode="normal" in="SourceGraphic" in2="effect1_backgroundBlur_6094_85039" result="shape"/>
</filter>
<filter id="filter7_b_6094_85039" x="180.866" y="49.5783" width="54.0524" height="54.0527" filterUnits="userSpaceOnUse" color-interpolation-filters="sRGB">
<feFlood flood-opacity="0" result="BackgroundImageFix"/>
<feGaussianBlur in="BackgroundImageFix" stdDeviation="1.03947"/>
<feComposite in2="SourceAlpha" operator="in" result="effect1_backgroundBlur_6094_85039"/>
<feBlend mode="normal" in="SourceGraphic" in2="effect1_backgroundBlur_6094_85039" result="shape"/>
</filter>
<filter id="filter8_b_6094_85039" x="429.921" y="306.921" width="54.0524" height="54.0527" filterUnits="userSpaceOnUse" color-interpolation-filters="sRGB">
<feFlood flood-opacity="0" result="BackgroundImageFix"/>
<feGaussianBlur in="BackgroundImageFix" stdDeviation="1.03947"/>
<feComposite in2="SourceAlpha" operator="in" result="effect1_backgroundBlur_6094_85039"/>
<feBlend mode="normal" in="SourceGraphic" in2="effect1_backgroundBlur_6094_85039" result="shape"/>
</filter>
<filter id="filter9_b_6094_85039" x="546.921" y="175.921" width="54.0524" height="54.0527" filterUnits="userSpaceOnUse" color-interpolation-filters="sRGB">
<feFlood flood-opacity="0" result="BackgroundImageFix"/>
<feGaussianBlur in="BackgroundImageFix" stdDeviation="1.03947"/>
<feComposite in2="SourceAlpha" operator="in" result="effect1_backgroundBlur_6094_85039"/>
<feBlend mode="normal" in="SourceGraphic" in2="effect1_backgroundBlur_6094_85039" result="shape"/>
</filter>
<filter id="filter10_b_6094_85039" x="570.921" y="291.815" width="54.0524" height="54.0527" filterUnits="userSpaceOnUse" color-interpolation-filters="sRGB">
<feFlood flood-opacity="0" result="BackgroundImageFix"/>
<feGaussianBlur in="BackgroundImageFix" stdDeviation="1.03947"/>
<feComposite in2="SourceAlpha" operator="in" result="effect1_backgroundBlur_6094_85039"/>
<feBlend mode="normal" in="SourceGraphic" in2="effect1_backgroundBlur_6094_85039" result="shape"/>
</filter>
<filter id="filter11_b_6094_85039" x="147.921" y="310.921" width="54.0524" height="54.0527" filterUnits="userSpaceOnUse" color-interpolation-filters="sRGB">
<feFlood flood-opacity="0" result="BackgroundImageFix"/>
<feGaussianBlur in="BackgroundImageFix" stdDeviation="1.03947"/>
<feComposite in2="SourceAlpha" operator="in" result="effect1_backgroundBlur_6094_85039"/>
<feBlend mode="normal" in="SourceGraphic" in2="effect1_backgroundBlur_6094_85039" result="shape"/>
</filter>
<filter id="filter12_b_6094_85039" x="28.9211" y="175.921" width="54.0524" height="54.0527" filterUnits="userSpaceOnUse" color-interpolation-filters="sRGB">
<feFlood flood-opacity="0" result="BackgroundImageFix"/>
<feGaussianBlur in="BackgroundImageFix" stdDeviation="1.03947"/>
<feComposite in2="SourceAlpha" operator="in" result="effect1_backgroundBlur_6094_85039"/>
<feBlend mode="normal" in="SourceGraphic" in2="effect1_backgroundBlur_6094_85039" result="shape"/>
</filter>
<filter id="filter13_b_6094_85039" x="5.92105" y="293.921" width="54.0524" height="54.0527" filterUnits="userSpaceOnUse" color-interpolation-filters="sRGB">
<feFlood flood-opacity="0" result="BackgroundImageFix"/>
<feGaussianBlur in="BackgroundImageFix" stdDeviation="1.03947"/>
<feComposite in2="SourceAlpha" operator="in" result="effect1_backgroundBlur_6094_85039"/>
<feBlend mode="normal" in="SourceGraphic" in2="effect1_backgroundBlur_6094_85039" result="shape"/>
</filter>
<linearGradient id="paint0_linear_6094_85039" x1="427.219" y1="77.2285" x2="427.219" y2="89.0785" gradientUnits="userSpaceOnUse">
<stop stop-color="#35B8F1"/>
<stop offset="1" stop-color="#28A8EA"/>
</linearGradient>
<linearGradient id="paint1_linear_6094_85039" x1="413.078" y1="68.8509" x2="422.032" y2="84.3585" gradientUnits="userSpaceOnUse">
<stop stop-color="#1784D9"/>
<stop offset="0.5" stop-color="#107AD5"/>
<stop offset="1" stop-color="#0A63C9"/>
</linearGradient>
<linearGradient id="paint2_linear_6094_85039" x1="4.90398" y1="203.42" x2="243.759" y2="175.6" gradientUnits="userSpaceOnUse">
<stop offset="0.3" stop-color="#337DED"/>
<stop offset="1" stop-color="#FF5833"/>
</linearGradient>
<linearGradient id="paint3_linear_6094_85039" x1="382.528" y1="200.301" x2="628.259" y2="174.817" gradientUnits="userSpaceOnUse">
<stop stop-color="#FF5833"/>
<stop offset="0.785" stop-color="#337DED"/>
</linearGradient>
<clipPath id="clip0_6094_85039">
<rect width="42.6184" height="45.7368" fill="white" transform="translate(294.691 180.551)"/>
</clipPath>
<clipPath id="clip1_6094_85039">
<rect width="24.9474" height="24.9474" fill="white" transform="translate(594.583 74.5254)"/>
</clipPath>
<clipPath id="clip2_6094_85039">
<rect width="26.8184" height="24.9474" fill="white" transform="translate(410.694 64.1309)"/>
</clipPath>
<clipPath id="clip3_6094_85039">
<rect width="23.836" height="24.9474" fill="white" transform="translate(195.975 64.1309)"/>
</clipPath>
<clipPath id="clip4_6094_85039">
<rect width="26.4792" height="24.9474" fill="white" transform="translate(443.708 321.474)"/>
</clipPath>
<clipPath id="clip5_6094_85039">
<rect width="24.9474" height="24.9474" fill="white" transform="translate(561.474 190.474)"/>
</clipPath>
<clipPath id="clip6_6094_85039">
<rect width="24.9474" height="24.9474" fill="white" transform="translate(585.474 306.367)"/>
</clipPath>
<clipPath id="clip7_6094_85039">
<rect width="24.9474" height="24.9474" fill="white" transform="translate(162.474 325.474)"/>
</clipPath>
<clipPath id="clip8_6094_85039">
<rect width="33.2632" height="24.9474" fill="white" transform="translate(39.3164 190.474)"/>
</clipPath>
<clipPath id="clip9_6094_85039">
<rect width="35.6578" height="24.9474" fill="white" transform="translate(15.1182 308.474)"/>
</clipPath>
</defs>
</svg>
