<svg width="341" height="370" viewBox="0 0 341 370" fill="none" xmlns="http://www.w3.org/2000/svg">
<g opacity="0.1" clip-path="url(#clip0_30088_92364)">
<path fill-rule="evenodd" clip-rule="evenodd" d="M-2.68777 0.699335C20.8069 -18.9759 49.6924 -31.4871 80.6501 -35.2122C116.685 -39.5481 153.48 -31.7333 185.241 -12.9985C217.001 5.73576 241.922 34.3255 256.078 68.2675C268.24 97.4276 271.863 129.114 266.69 159.597L244.157 152.953C248.079 127.437 244.859 101.026 234.7 76.6688C222.544 47.5232 201.146 22.9744 173.874 6.88792C146.603 -9.19859 115.008 -15.9093 84.0658 -12.1861C58.206 -9.07437 34.0308 1.17633 14.1622 17.2854L-2.68777 0.699335ZM78.3946 -50.418C44.0709 -46.288 12.0775 -32.2797 -13.8029 -10.2417C-17.6293 -6.98328 -21.3214 -3.55019 -24.8682 0.0530844L-13.7975 10.9504L2.96669 27.4521L14.0374 38.3495C33.3128 18.7675 58.7429 6.33791 86.3214 3.01972C113.9 -0.298696 142.061 5.68257 166.368 20.02C190.675 34.3582 209.748 56.2394 220.583 82.2165C230.279 105.466 232.883 130.816 228.171 155.036C227.254 159.753 229.999 164.621 234.67 165.999L269.778 176.352C274.45 177.729 279.269 175.094 280.287 170.4C288.019 134.705 284.537 97.1057 270.196 62.7196C254.719 25.6101 227.471 -5.64884 192.747 -26.1314C158.022 -46.6145 117.793 -55.1586 78.3946 -50.418ZM-79.7562 110.249C-75.6377 70.7803 -58.4574 34.1766 -30.9209 6.20201L7.98476 44.4984C-11.2906 64.0805 -23.3173 89.7036 -26.2 117.331C-29.0828 144.959 -22.6574 173.021 -7.93818 197.099C6.78185 221.177 28.9607 239.903 55.1062 250.325C78.5061 259.654 103.894 261.858 128.036 256.764C132.739 255.772 137.649 258.44 139.1 263.089L150.005 298.029C151.457 302.679 148.897 307.54 144.221 308.631C108.652 316.925 71.0029 314.037 36.3943 300.24C-0.954424 285.35 -32.6398 258.6 -53.668 224.204C-74.6961 189.806 -83.874 149.716 -79.7562 110.249ZM30.4856 54.5402C46.1007 38.6767 66.7016 28.6078 89.043 25.9196C111.385 23.2312 134.198 28.0759 153.889 39.6914C173.581 51.3069 189.031 69.0323 197.808 90.0767C205.875 109.418 207.883 130.552 203.636 150.646C203.015 153.584 200.001 155.23 197.081 154.37L168.319 145.888C165.399 145.027 163.689 141.984 164.204 139.024C166.186 127.613 164.851 115.739 160.296 104.818C155.03 92.1912 145.759 81.5557 133.945 74.5872C122.129 67.6178 108.442 64.7109 95.0367 66.3238C81.6316 67.9368 69.2713 73.9771 59.9018 83.4957L30.4856 54.5402ZM25.5496 79.9484C16.836 92.036 11.3791 106.302 9.80238 121.418C7.76825 140.911 12.3011 160.712 22.6872 177.7C33.0725 194.689 48.722 207.901 67.1693 215.256C81.474 220.958 96.8325 222.887 111.759 220.964L107.365 206.887C95.5509 208.057 83.4784 206.365 72.1893 201.864C56.7475 195.708 43.6496 184.649 34.9561 170.429C26.2626 156.209 22.4687 139.635 24.1705 123.318C25.4153 111.389 29.5469 100.093 36.1274 90.3605L25.5496 79.9484ZM-3.26014 119.691C-1.38137 101.68 5.29491 84.7209 15.9684 70.5172C18.5583 67.0707 21.3837 63.7863 24.4327 60.6888L33.9219 70.0294L44.36 80.304L53.8491 89.6446C44.4797 99.1631 38.6344 111.617 37.2332 125.045C35.8319 138.474 38.9553 152.115 46.1095 163.818C53.2645 175.522 64.0449 184.623 76.7528 189.69C87.7445 194.071 99.6386 195.219 111.016 193.057C113.968 192.496 117.038 194.157 117.944 197.063L126.879 225.688C127.786 228.595 126.187 231.633 123.26 232.301C103.235 236.865 82.0716 235.191 62.6059 227.43C41.4255 218.986 23.4584 203.817 11.5338 184.311C-0.390878 164.805 -5.5957 142.073 -3.26014 119.691Z" fill="url(#paint0_linear_30088_92364)"/>
</g>
<defs>
<linearGradient id="paint0_linear_30088_92364" x1="93" y1="66.5" x2="154" y2="194.5" gradientUnits="userSpaceOnUse">
<stop stop-color="white"/>
<stop offset="1" stop-color="white" stop-opacity="0"/>
</linearGradient>
<clipPath id="clip0_30088_92364">
<rect width="338.425" height="362.38" fill="white" transform="translate(99.2109 -126) rotate(44.5479)"/>
</clipPath>
</defs>
</svg>
